<?xml version="1.0" encoding="UTF-8"?>
<svg version="1.1" xmlns="http://www.w3.org/2000/svg" width="512" height="512">
<path d="M0 0 C1.01790619 0.00215515 2.03581238 0.0043103 3.08456421 0.00653076 C17.69363523 0.05620146 32.02575853 0.30709809 46.375 3.3125 C47.34985352 3.51117676 48.32470703 3.70985352 49.32910156 3.91455078 C97.7109774 14.03517194 141.69928269 35.9516877 177.375 70.3125 C178.3640332 71.26068604 178.3640332 71.26068604 179.37304688 72.22802734 C188.86130305 81.37247479 197.6012044 90.66984009 205.375 101.3125 C206.23306152 102.46355017 207.09113451 103.61459177 207.94921875 104.765625 C213.98736829 112.95680614 219.34595521 121.47054105 224.375 130.3125 C224.73948242 130.94430176 225.10396484 131.57610352 225.47949219 132.22705078 C247.08534998 169.97532572 256.85198095 212.74189997 256.6875 255.9375 C256.68534485 256.95540619 256.6831897 257.97331238 256.68096924 259.02206421 C256.63129854 273.63113523 256.38040191 287.96325853 253.375 302.3125 C253.07698486 303.77478027 253.07698486 303.77478027 252.77294922 305.26660156 C242.65232806 353.6484774 220.7358123 397.63678269 186.375 433.3125 C185.74287598 433.97185547 185.11075195 434.63121094 184.45947266 435.31054688 C175.31502521 444.79880305 166.01765991 453.5387044 155.375 461.3125 C154.22394983 462.17056152 153.07290823 463.02863451 151.921875 463.88671875 C143.73224019 469.92427396 135.22961724 475.30707302 126.375 480.3125 C125.66778809 480.7146875 124.96057617 481.116875 124.23193359 481.53125 C101.09654164 494.5566741 75.92537591 503.30551461 49.9375 508.625 C49.21860596 508.77235596 48.49971191 508.91971191 47.7590332 509.0715332 C33.08339502 511.86090125 18.55831162 512.66142619 3.64770508 512.62817383 C0.70811513 512.6250221 -2.2304558 512.64854926 -5.16992188 512.67382812 C-18.54306192 512.71848737 -31.43916711 511.51301542 -44.625 509.3125 C-46.33055054 509.03031616 -46.33055054 509.03031616 -48.07055664 508.74243164 C-91.33802759 500.97044532 -132.38793216 480.98345309 -165.625 452.3125 C-166.37007813 451.67828125 -167.11515625 451.0440625 -167.8828125 450.390625 C-181.38779833 438.57948485 -194.05918743 425.82889772 -204.625 411.3125 C-205.48149066 410.16255169 -206.33826433 409.01281411 -207.1953125 407.86328125 C-213.23534209 399.67315742 -218.61867614 391.16870382 -223.625 382.3125 C-224.0271875 381.60528809 -224.429375 380.89807617 -224.84375 380.16943359 C-237.8691741 357.03404164 -246.61801461 331.86287591 -251.9375 305.875 C-252.08485596 305.15610596 -252.23221191 304.43721191 -252.3840332 303.6965332 C-255.35789088 288.05024391 -255.99800362 272.57681954 -255.9375 256.6875 C-255.93534485 255.66959381 -255.9331897 254.65168762 -255.93096924 253.60293579 C-255.88129854 238.99386477 -255.63040191 224.66174147 -252.625 210.3125 C-252.42632324 209.33764648 -252.22764648 208.36279297 -252.02294922 207.35839844 C-241.90232806 158.9765226 -219.9858123 114.98821731 -185.625 79.3125 C-184.99287598 78.65314453 -184.36075195 77.99378906 -183.70947266 77.31445312 C-174.56502521 67.82619695 -165.26765991 59.0862956 -154.625 51.3125 C-153.47394983 50.45443848 -152.32290823 49.59636549 -151.171875 48.73828125 C-142.98224019 42.70072604 -134.47961724 37.31792698 -125.625 32.3125 C-124.91778809 31.9103125 -124.21057617 31.508125 -123.48193359 31.09375 C-100.34654164 18.0683259 -75.17537591 9.31948539 -49.1875 4 C-48.46860596 3.85264404 -47.74971191 3.70528809 -47.0090332 3.5534668 C-31.36274391 0.57960912 -15.88931954 -0.06050362 0 0 Z " fill="#865CEF" transform="translate(255.625,-0.3125)"/>
<path d="M0 0 C3.69089418 -0.04533103 7.38161778 -0.07581065 11.07269287 -0.10186768 C12.7284156 -0.12453453 12.7284156 -0.12453453 14.41758728 -0.1476593 C26.90954479 -0.19763903 35.97008371 2.611937 44.99066162 11.40203857 C46.5417041 12.94657292 48.07918827 14.5028201 49.6083374 16.06903076 C51.19167205 17.68930168 52.79086216 19.29257117 54.39300537 20.89422607 C62.17816162 28.75485444 62.17816162 28.75485444 62.17816162 31.05047607 C62.742771 31.27735107 63.30738037 31.50422607 63.88909912 31.73797607 C66.81349208 33.41476111 68.5952739 35.51029756 70.80316162 38.05047607 C71.57917725 38.93735107 72.35519287 39.82422607 73.15472412 40.73797607 C73.8224585 41.50110107 74.49019287 42.26422607 75.17816162 43.05047607 C77.7829305 45.65524496 78.89160236 45.31558337 82.52191162 45.35345459 C83.64887955 45.37013184 84.77584747 45.38680908 85.93696594 45.4039917 C87.17156052 45.41237061 88.40615509 45.42074951 89.67816162 45.42938232 C91.64475088 45.45493457 93.6113401 45.48048983 95.57792759 45.5061779 C97.67307497 45.531701 99.76822047 45.55243363 101.86343384 45.57174683 C106.17233634 45.61160399 110.48101286 45.66425695 114.78973389 45.72015381 C115.50259709 45.72937142 116.2154603 45.73858904 116.94992542 45.74808598 C118.39023636 45.76671908 119.83054683 45.78538722 121.27085686 45.8040905 C123.43603868 45.83177685 125.60123284 45.85820402 127.76643372 45.88435364 C140.21850038 46.03688099 152.66673708 46.29630915 165.11566162 46.61297607 C167.77679443 46.67950439 167.77679443 46.67950439 170.43792725 46.74603271 C174.35142464 46.84429956 178.26479661 46.94707583 182.17816162 47.05047607 C183.10857924 66.15933932 183.31619593 85.23507907 183.27955556 104.36064959 C183.27317711 108.2709589 183.27270705 112.18126954 183.27153015 116.09158325 C183.26845855 123.45016273 183.26030326 130.80872683 183.25018066 138.16729963 C183.2388876 146.56435492 183.23347631 154.96141107 183.22848523 163.35847211 C183.21811564 180.5891489 183.20059972 197.81981085 183.17816162 215.05047607 C161.65524309 215.94728567 140.17447931 216.18952527 118.63540506 216.15187001 C114.34341511 216.14548364 110.0514239 216.14502091 105.75942993 216.1438446 C97.68558176 216.14077522 89.61174764 216.13262313 81.53790557 216.12249511 C70.58980639 216.10906896 59.64170317 216.10379847 48.69359779 216.0979929 C31.52177527 216.08867858 14.34998236 216.06873102 -2.82183838 216.05047607 C-2.82183838 180.74047607 -2.82183838 145.43047607 -2.82183838 109.05047607 C-38.46183838 109.05047607 -74.10183838 109.05047607 -110.82183838 109.05047607 C-110.82183838 144.03047607 -110.82183838 179.01047607 -110.82183838 215.05047607 C-120.72183838 215.05047607 -130.62183838 215.05047607 -140.82183838 215.05047607 C-140.84461062 198.01859491 -140.86294671 180.98672721 -140.87365055 163.95483494 C-140.87875761 156.04261789 -140.88569042 148.13041112 -140.89727783 140.21820068 C-140.907399 133.30374882 -140.91373215 126.38930442 -140.91592687 119.47484535 C-140.91720517 115.83022665 -140.92009948 112.18562924 -140.92756844 108.54101753 C-140.96801471 88.01739928 -140.52283416 67.56369876 -139.82183838 47.05047607 C-129.59183838 47.05047607 -119.36183838 47.05047607 -108.82183838 47.05047607 C-108.79605713 44.73789795 -108.77027588 42.42531982 -108.74371338 40.04266357 C-108.70523682 37.78863657 -108.66009507 35.53483402 -108.61431885 33.28094482 C-108.58619425 31.72148458 -108.56493748 30.16188403 -108.55084229 28.60223389 C-108.52929296 26.35248434 -108.48258781 24.10440633 -108.43121338 21.85516357 C-108.42937042 20.81886307 -108.42937042 20.81886307 -108.42749023 19.7616272 C-108.25562198 14.00702505 -106.17589589 10.47360129 -102.22418213 6.40594482 C-97.71104822 2.80747272 -94.72619552 1.93352696 -89.04522705 1.75384521 C-87.85963699 1.71480576 -86.67404694 1.6757663 -85.45252991 1.63554382 C-83.52191963 1.57990013 -83.52191963 1.57990013 -81.55230713 1.52313232 C-80.20034884 1.48152388 -78.84839476 1.43977861 -77.4964447 1.39790344 C-64.32657791 1.00030441 -51.15397634 0.75132066 -37.97979736 0.54779053 C-34.12434265 0.4878206 -30.26899769 0.4227264 -26.41363525 0.3571167 C-17.60934862 0.21164152 -8.80467712 0.1162858 0 0 Z " fill="#F8F0FE" transform="translate(234.82183837890625,85.94952392578125)"/>
<path d="M0 0 C116.82 0 233.64 0 354 0 C354 33 354 33 349 41 C344.19055335 45.50885624 338.86775911 46.30696344 332.47241211 46.41186523 C331.35850821 46.44073035 331.35850821 46.44073035 330.22210121 46.4701786 C327.76146379 46.5305557 325.30081196 46.57636229 322.83984375 46.62109375 C321.09528566 46.65896378 319.35073312 46.69709026 317.60618591 46.73545837 C298.81792669 47.1234223 280.02842763 47.11686854 261.23712158 47.06866455 C256.66915384 47.05813616 252.10117969 47.05380617 247.53320312 47.04882812 C238.68878578 47.03833945 229.84439756 47.02144939 221 47 C221.26971619 47.66092148 221.53943237 48.32184296 221.81732178 49.00279236 C223.58908342 53.38051134 225.33444985 57.710337 226.640625 62.25390625 C231.08767116 77.50020848 231.08767116 77.50020848 242.1796875 88.37109375 C246.44859964 90.63064615 250.31462274 92.14466876 255.13256836 92.05004883 C255.96030258 92.03706253 256.7880368 92.02407623 257.64085388 92.01069641 C258.53152054 91.99298691 259.42218719 91.9752774 260.33984375 91.95703125 C262.22590098 91.93464577 264.11196943 91.91319006 265.99804688 91.89257812 C268.97190536 91.855451 271.94519439 91.81234688 274.91870117 91.75317383 C277.78833324 91.69872476 280.65732453 91.66960083 283.52734375 91.64453125 C284.86030739 91.60885796 284.86030739 91.60885796 286.22019958 91.57246399 C292.35925096 91.54638375 292.35925096 91.54638375 295.55297852 93.80737305 C297.72967756 97.10565786 297.67695997 99.1413282 297 103 C293.75078858 106.38135839 292.11861583 107.79099375 287.48199844 108.65731621 C285.54066843 108.6796139 285.54066843 108.6796139 283.56011963 108.70236206 C282.84391496 108.7171659 282.12771029 108.73196974 281.38980246 108.74722219 C279.03591624 108.78979739 276.68334077 108.7973408 274.32910156 108.80419922 C272.66351763 108.82655362 270.99795926 108.85089294 269.33243179 108.87711906 C265.04646336 108.93792042 260.76090977 108.96828104 256.47457314 108.98762798 C254.13532909 108.9993234 251.79625242 109.01737955 249.45707703 109.03855133 C239.9864988 109.12346947 230.51671583 109.14253873 221.04580212 109.1343255 C217.04422645 109.13170617 213.04265248 109.13416476 209.04107666 109.13571167 C202.33890357 109.1375057 195.63674168 109.13520052 188.93457031 109.13037109 C181.29036875 109.12492494 173.64619387 109.1267051 166.00199294 109.1321975 C159.31968011 109.13679834 152.63737511 109.13734604 145.9550612 109.13475883 C142.01589159 109.13323479 138.07673433 109.13289106 134.13756561 109.13629532 C118.04864897 109.14825384 101.97438697 109.02493894 85.89160156 108.55419922 C85.19867115 108.5347872 84.50574073 108.51537518 83.79181242 108.49537492 C63.26768455 107.90548896 63.26768455 107.90548896 58.9375 104.8125 C57 102 57 102 56.375 98.9375 C57 96 57 96 58.98583984 93.83203125 C63.08650749 91.33961184 66.15686812 91.55870909 70.8515625 91.75 C71.70624115 91.76514648 72.5609198 91.78029297 73.4414978 91.79589844 C77.08030483 91.86087935 80.71727653 91.97272446 84.35498047 92.08203125 C99.18903084 92.79101643 99.18903084 92.79101643 113 88 C114.00429783 87.00431638 115.00523408 86.00520682 116 85 C116.66 85 117.32 85 118 85 C118.29156982 84.4117041 118.58313965 83.8234082 118.88354492 83.21728516 C119.84692667 81.30400437 120.85136544 79.41149845 121.86328125 77.5234375 C124.57330027 72.10339947 126.33678421 66.38201083 128.1875 60.625 C128.88813301 58.47096677 129.58989763 56.31730117 130.29296875 54.1640625 C130.5974292 53.21998535 130.90188965 52.2759082 131.21557617 51.30322266 C132 49 132 49 133 47 C131.15390137 47.00785522 131.15390137 47.00785522 129.27050781 47.01586914 C103.9830204 47.11287191 78.70192548 47.03448238 53.41760254 46.62667847 C50.77577841 46.58407951 48.13393219 46.54282811 45.49206543 46.50296021 C41.7641414 46.44563791 38.03637778 46.38215037 34.30859375 46.31640625 C32.65998604 46.29132996 32.65998604 46.29132996 30.97807312 46.26574707 C10.41918774 45.87066593 10.41918774 45.87066593 4 40 C-3.46543254 30.10396152 0 10.60628995 0 0 Z " fill="#F1DCFD" transform="translate(79,316)"/>
<path d="M0 0 C1.55334949 0.02511675 3.10673813 0.04792397 4.66015625 0.06835938 C8.44187135 0.11880915 12.21808499 0.21667445 16 0.3125 C16 5.2625 16 10.2125 16 15.3125 C5.77 15.3125 -4.46 15.3125 -15 15.3125 C-14.99323242 22.46667603 -14.99323242 22.46667603 -14.98632812 29.76538086 C-14.98107392 46.15063476 -15.07235309 62.53422216 -15.20192909 78.91892743 C-15.23087456 82.61431526 -15.2583507 86.30971407 -15.28601074 90.00511169 C-15.33814239 96.94200851 -15.39151495 103.87889514 -15.4453826 110.81577867 C-15.5068454 118.73899751 -15.56684983 126.6622272 -15.62675762 134.58545792 C-15.74959793 150.8278176 -15.87437788 167.07016156 -16 183.3125 C-6.1 183.3125 3.8 183.3125 14 183.3125 C14 148.3325 14 113.3525 14 77.3125 C49.64 77.3125 85.28 77.3125 122 77.3125 C122 112.6225 122 147.9325 122 184.3125 C138.36980469 184.20421875 138.36980469 184.20421875 155.0703125 184.09375 C162.04296807 184.04806924 169.01562391 184.00243882 175.98828125 183.95703125 C187.02099994 183.88517447 198.05371713 183.81313006 209.08642578 183.73974609 C217.12701381 183.68626514 225.16760618 183.63349904 233.20820415 183.58153296 C237.45131771 183.55408645 241.69442855 183.52632184 245.93753433 183.49769592 C266.62541184 183.3583892 287.31160524 183.27934158 308 183.3125 C307.99484627 182.60463663 307.98969254 181.89677326 307.98438263 181.16745949 C307.85812479 163.81701857 307.73292315 146.46657033 307.60884857 129.11611366 C307.54881864 120.72502908 307.48845167 112.33394719 307.42724609 103.94287109 C307.37380201 96.61574587 307.32103628 89.2886161 307.26903296 81.9614805 C307.24156234 78.0940842 307.21378764 74.22669071 307.18519592 70.35930252 C307.04978316 52.01017415 306.96563301 33.66226165 307 15.3125 C306.10203123 15.31909338 306.10203123 15.31909338 305.18592167 15.32581997 C304.00625151 15.33438566 304.00625151 15.33438566 302.80274963 15.34312439 C301.63407773 15.35165137 301.63407773 15.35165137 300.4417963 15.36035061 C292.24218195 15.41515468 284.15929778 15.22451732 276 14.3125 C275.74605469 13.69761719 275.49210937 13.08273438 275.23046875 12.44921875 C274.88628906 11.64097656 274.54210937 10.83273438 274.1875 10 C273.85105469 9.19949219 273.51460938 8.39898437 273.16796875 7.57421875 C272.01327466 5.33820579 270.77862696 4.05035615 269 2.3125 C269 1.6525 269 0.9925 269 0.3125 C273.41665225 0.28304961 277.83327867 0.26555184 282.25 0.25 C283.48492187 0.24162109 284.71984375 0.23324219 285.9921875 0.22460938 C309.13446739 0.16370864 309.13446739 0.16370864 315 4.3125 C324.45962273 13.74627677 322.17317658 30.6206123 322.55639648 43.16796875 C322.57740634 43.84699942 322.59841619 44.52603008 322.62006271 45.22563744 C323.08729576 60.62508855 323.13217093 76.01805585 323.10139394 91.42332077 C323.09497316 95.20547024 323.0945423 98.98762131 323.09336853 102.76977539 C323.09030866 109.87316043 323.08217056 116.97652935 323.07201904 124.07990742 C323.06068779 132.19173836 323.05530543 140.30357024 323.05032361 148.41540718 C323.03998083 165.04778076 323.02248965 181.6801383 323 198.3125 C290.12512744 199.23900037 257.26907148 199.46400151 224.3823096 199.44779945 C219.52787466 199.44547599 214.67344322 199.44524687 209.81900787 199.44631577 C208.76282065 199.44654561 208.76282065 199.44654561 207.68529631 199.44678011 C206.25262918 199.4471 204.81996205 199.44742421 203.38729492 199.4477527 C190.10366159 199.45057155 176.82003527 199.44737838 163.53640309 199.44195233 C152.26954517 199.4374916 141.00269758 199.43826132 129.73583984 199.44287109 C116.48981567 199.4482885 103.24379758 199.45029314 89.99777246 199.44725883 C88.57060003 199.44694045 87.14342761 199.44662608 85.71625519 199.44631577 C85.01499175 199.44616149 84.31372831 199.44600721 83.59121446 199.44584826 C78.77463203 199.44500399 73.95805367 199.44641769 69.14147186 199.44879532 C35.4146973 199.46303665 1.71656779 199.16645479 -32 198.3125 C-32.02344203 181.99554877 -32.0410344 165.67860306 -32.05181217 149.36163902 C-32.05695123 141.78405568 -32.06394798 134.20648284 -32.07543945 126.62890625 C-32.08545974 120.0182455 -32.09187078 113.40759237 -32.09408849 106.79692423 C-32.09538322 103.30214088 -32.09838956 99.80737931 -32.10573006 96.312603 C-32.11389045 92.39508429 -32.11398645 88.47758618 -32.11352539 84.56005859 C-32.11712067 83.42284866 -32.12071594 82.28563873 -32.12442017 81.1139679 C-32.11567198 74.19107907 -31.78557997 67.34717672 -31.22706127 60.44651794 C-30.89257672 55.82978791 -30.86486881 51.22826578 -30.859375 46.6015625 C-30.8410776 44.67837328 -30.82151023 42.7551958 -30.80078125 40.83203125 C-30.7717054 37.86974405 -30.74999522 34.9082408 -30.74951172 31.94580078 C-30.7461697 29.0387189 -30.71163501 26.13334551 -30.671875 23.2265625 C-30.6789447 22.34932526 -30.6860144 21.47208801 -30.69329834 20.56826782 C-30.55526398 13.54587556 -28.35692908 8.62672908 -23.33856201 3.67219543 C-17.01253791 -1.66465064 -7.7582447 -0.21848404 0 0 Z " fill="#694FEA" transform="translate(110,117.6875)"/>
<path d="M0 0 C0 0.33 0 0.66 0 1 C-8.58 1 -17.16 1 -26 1 C-26 36.64 -26 72.28 -26 109 C-61.64 109 -97.28 109 -134 109 C-134 143.98 -134 178.96 -134 215 C-143.9 215 -153.8 215 -164 215 C-164.02277224 197.96811884 -164.04110833 180.93625113 -164.05181217 163.90435886 C-164.05691923 155.99214181 -164.06385204 148.07993505 -164.07543945 140.16772461 C-164.08556062 133.25327275 -164.09189377 126.33882834 -164.09408849 119.42436928 C-164.09536679 115.77975057 -164.0982611 112.13515317 -164.10573006 108.49054146 C-164.14617633 87.9669232 -163.70099579 67.51322269 -163 47 C-152.77 47 -142.54 47 -132 47 C-131.97421875 44.68742187 -131.9484375 42.37484375 -131.921875 39.9921875 C-131.88339844 37.7381605 -131.83825669 35.48435794 -131.79248047 33.23046875 C-131.76435587 31.6710085 -131.74309911 30.11140796 -131.72900391 28.55175781 C-131.70745458 26.30200827 -131.66074943 24.05393026 -131.609375 21.8046875 C-131.60753204 20.76838699 -131.60753204 20.76838699 -131.60565186 19.71115112 C-131.4337836 13.95654897 -129.35405751 10.42312521 -125.40234375 6.35546875 C-120.88920984 2.75699665 -117.90435714 1.88305089 -112.22338867 1.70336914 C-111.03779861 1.66432968 -109.85220856 1.62529022 -108.63069153 1.58506775 C-106.70008125 1.52942406 -106.70008125 1.52942406 -104.73046875 1.47265625 C-103.37851046 1.4310478 -102.02655638 1.38930254 -100.67460632 1.34742737 C-87.50473953 0.94982834 -74.33213796 0.70084459 -61.15795898 0.49731445 C-57.30250427 0.43734452 -53.44715931 0.37225032 -49.59179688 0.30664062 C-33.06003024 0.0357183 -16.53385174 -0.05746753 0 0 Z " fill="#D38AF9" transform="translate(258,86)"/>
<path d="M0 0 C35.64 0 71.28 0 108 0 C108 35.31 108 70.62 108 107 C96.49125 107.020625 84.9825 107.04125 73.125 107.0625 C69.57121582 107.071604 66.01743164 107.08070801 62.35595703 107.09008789 C57.81225586 107.09460449 57.81225586 107.09460449 55.64572144 107.09544373 C54.21887901 107.09692037 52.7920373 107.10030183 51.36520386 107.10557556 C34.22285078 107.16542628 17.15119463 106.5044469 0 106 C0 71.02 0 36.04 0 0 Z " fill="#866CEE" transform="translate(124,195)"/>
<path d="M0 0 C29.04 0 58.08 0 88 0 C92.4629974 11.15749349 92.4629974 11.15749349 93.640625 15.25390625 C98.08767116 30.50020848 98.08767116 30.50020848 109.1796875 41.37109375 C113.44859964 43.63064615 117.31462274 45.14466876 122.13256836 45.05004883 C122.96030258 45.03706253 123.7880368 45.02407623 124.64085388 45.01069641 C125.97685387 44.98413216 125.97685387 44.98413216 127.33984375 44.95703125 C129.22590098 44.93464577 131.11196943 44.91319006 132.99804688 44.89257812 C135.97190536 44.855451 138.94519439 44.81234688 141.91870117 44.75317383 C144.78833324 44.69872476 147.65732453 44.66960083 150.52734375 44.64453125 C151.41598618 44.62074905 152.3046286 44.59696686 153.22019958 44.57246399 C159.35925096 44.54638375 159.35925096 44.54638375 162.55297852 46.80737305 C164.72967756 50.10565786 164.67695997 52.1413282 164 56 C160.75078858 59.38135839 159.11861583 60.79099375 154.48199844 61.65731621 C152.54066843 61.6796139 152.54066843 61.6796139 150.56011963 61.70236206 C149.84391496 61.7171659 149.12771029 61.73196974 148.38980246 61.74722219 C146.03591624 61.78979739 143.68334077 61.7973408 141.32910156 61.80419922 C139.66351763 61.82655362 137.99795926 61.85089294 136.33243179 61.87711906 C132.04646336 61.93792042 127.76090977 61.96828104 123.47457314 61.98762798 C121.13532909 61.9993234 118.79625242 62.01737955 116.45707703 62.03855133 C106.9864988 62.12346947 97.51671583 62.14253873 88.04580212 62.1343255 C84.04422645 62.13170617 80.04265248 62.13416476 76.04107666 62.13571167 C69.33890357 62.1375057 62.63674168 62.13520052 55.93457031 62.13037109 C48.29036875 62.12492494 40.64619387 62.1267051 33.00199294 62.1321975 C26.31968011 62.13679834 19.63737511 62.13734604 12.9550612 62.13475883 C9.01589159 62.13323479 5.07673433 62.13289106 1.13756561 62.13629532 C-14.95135103 62.14825384 -31.02561303 62.02493894 -47.10839844 61.55419922 C-48.14779406 61.52508119 -48.14779406 61.52508119 -49.20818758 61.49537492 C-69.73231545 60.90548896 -69.73231545 60.90548896 -74.0625 57.8125 C-76 55 -76 55 -76.625 51.9375 C-76 49 -76 49 -74.01416016 46.83203125 C-69.91349251 44.33961184 -66.84313188 44.55870909 -62.1484375 44.75 C-61.29375885 44.76514648 -60.4390802 44.78029297 -59.5585022 44.79589844 C-55.91969517 44.86087935 -52.28272347 44.97272446 -48.64501953 45.08203125 C-33.81096916 45.79101643 -33.81096916 45.79101643 -20 41 C-18.99570217 40.00431638 -17.99476592 39.00520682 -17 38 C-16.34 38 -15.68 38 -15 38 C-14.70843018 37.4117041 -14.41686035 36.8234082 -14.11645508 36.21728516 C-13.15307333 34.30400437 -12.14863456 32.41149845 -11.13671875 30.5234375 C-8.42669973 25.10339947 -6.66321579 19.38201083 -4.8125 13.625 C-4.11186699 11.47096677 -3.41010237 9.31730117 -2.70703125 7.1640625 C-2.25034058 5.74794678 -2.25034058 5.74794678 -1.78442383 4.30322266 C-1 2 -1 2 0 0 Z " fill="#D8ACFA" transform="translate(212,363)"/>
<path d="M0 0 C9.45831893 -0.03073009 18.91663999 -0.0510226 28.375 -0.0625 C29.07543678 -0.06335602 29.77587357 -0.06421204 30.49753571 -0.06509399 C55.01095698 -0.09155085 79.49754056 0.22924542 104 1 C104.93041762 20.10886324 105.13803431 39.184603 105.10139394 58.31017351 C105.09501549 62.22048282 105.09454543 66.13079347 105.09336853 70.04110718 C105.09029693 77.39968666 105.08214164 84.75825076 105.07201904 92.11682355 C105.06072598 100.51387885 105.05531469 108.910935 105.05032361 117.30799603 C105.03995402 134.53867283 105.0224381 151.76933477 105 169 C100.9815394 169.14312419 96.96299492 169.28360457 92.94436455 169.42188168 C90.92381626 169.49191673 88.90333593 169.56390407 86.88285828 169.63594818 C73.9608771 170.07828088 61.05287355 170.11397838 48.125 170.0625 C45.85286561 170.05745804 43.58073009 170.05290005 41.30859375 170.04882812 C35.87237022 170.0380746 30.43619089 170.02156481 25 170 C25 169.67 25 169.34 25 169 C41.17 169 57.34 169 74 169 C73.90911022 153.57896226 73.90911022 153.57896226 73.79101562 138.15820312 C73.73678483 131.86436237 73.68567106 125.5706089 73.65356445 119.27661133 C73.62746495 114.19955219 73.58701558 109.12278779 73.53681374 104.04591179 C73.52018992 102.11358253 73.50864781 100.18120234 73.50238609 98.24881172 C73.49269606 95.5321815 73.46457888 92.81629778 73.43237305 90.09985352 C73.43380814 89.30934601 73.43524323 88.5188385 73.4367218 87.70437622 C73.30041458 79.52019514 71.17660222 72.66001888 65.8125 66.375 C65.09707031 65.51648438 64.38164062 64.65796875 63.64453125 63.7734375 C61.6716936 61.70443495 59.77686882 59.92405104 57.6081543 58.09179688 C51.67437163 52.92979035 46.17740416 47.32150052 40.625 41.7578125 C39.44830659 40.58179381 38.27146486 39.40592351 37.09448242 38.23019409 C34.6455094 35.78268606 32.19833131 33.33340149 29.75244141 30.8828125 C26.61059564 27.73522577 23.46422175 24.59220945 20.31652832 21.45047188 C17.89390842 19.03145247 15.47365901 16.61007273 13.05413818 14.18795395 C11.8937935 13.02694085 10.73270186 11.8666738 9.57086182 10.70715714 C7.95757744 9.0963956 6.34750456 7.48249309 4.73828125 5.86767578 C3.82087158 4.94947052 2.90346191 4.03126526 1.95825195 3.0852356 C0 1 0 1 0 0 Z " fill="#EECDFE" transform="translate(313,132)"/>
<path d="M0 0 C8.03059557 5.76845597 14.43976557 14.33142383 16.25 24.25 C17.07855219 37.56464106 14.80826477 48.02151151 6.25 58.375 C0.29450647 64.79545731 -8.29478787 69.92801245 -17.19140625 70.453125 C-29.12717332 70.6828827 -38.61808819 69.66047179 -47.75 61.25 C-55.97982836 53.12115113 -59.78211137 45.27977346 -60.125 33.6875 C-60.02819155 22.13099133 -55.06890252 12.80235951 -47.1640625 4.60546875 C-33.97468122 -7.62412188 -15.29742617 -9.53539564 0 0 Z " fill="#FCF8FE" transform="translate(200.75,108.75)"/>
<path d="M0 0 C1.55334949 0.02511675 3.10673813 0.04792397 4.66015625 0.06835938 C8.44187135 0.11880915 12.21808499 0.21667445 16 0.3125 C16 5.2625 16 10.2125 16 15.3125 C5.77 15.3125 -4.46 15.3125 -15 15.3125 C-14.99323242 22.45990845 -14.99323242 22.45990845 -14.98632812 29.75170898 C-14.98104917 46.20887083 -15.07280579 62.66427211 -15.20192909 79.12085652 C-15.23086742 82.84427167 -15.25834798 86.56769763 -15.28601074 90.29112244 C-15.33814979 97.28114308 -15.39152068 104.27115371 -15.4453826 111.26116127 C-15.51842175 120.74973594 -15.58945965 130.23832561 -15.66063499 139.72691441 C-15.7721668 154.58878868 -15.88628719 169.45064188 -16 184.3125 C4.79 184.3125 25.58 184.3125 47 184.3125 C46 198.3125 46 198.3125 45 199.3125 C27.31929246 200.51265049 9.14244462 199.18121317 -8.5625 198.8046875 C-10.84570094 198.75697549 -13.12890406 198.70936737 -15.41210938 198.66186523 C-20.94143183 198.54660537 -26.47072626 198.43007228 -32 198.3125 C-32.02344203 181.99554877 -32.0410344 165.67860306 -32.05181217 149.36163902 C-32.05695123 141.78405568 -32.06394798 134.20648284 -32.07543945 126.62890625 C-32.08545974 120.0182455 -32.09187078 113.40759237 -32.09408849 106.79692423 C-32.09538322 103.30214088 -32.09838956 99.80737931 -32.10573006 96.312603 C-32.11389045 92.39508429 -32.11398645 88.47758618 -32.11352539 84.56005859 C-32.11712067 83.42284866 -32.12071594 82.28563873 -32.12442017 81.1139679 C-32.11567198 74.19107907 -31.78557997 67.34717672 -31.22706127 60.44651794 C-30.89257672 55.82978791 -30.86486881 51.22826578 -30.859375 46.6015625 C-30.8410776 44.67837328 -30.82151023 42.7551958 -30.80078125 40.83203125 C-30.7717054 37.86974405 -30.74999522 34.9082408 -30.74951172 31.94580078 C-30.7461697 29.0387189 -30.71163501 26.13334551 -30.671875 23.2265625 C-30.6789447 22.34932526 -30.6860144 21.47208801 -30.69329834 20.56826782 C-30.55526398 13.54587556 -28.35692908 8.62672908 -23.33856201 3.67219543 C-17.01253791 -1.66465064 -7.7582447 -0.21848404 0 0 Z " fill="#2A12E1" transform="translate(110,117.6875)"/>
<path d="M0 0 C0 0.33 0 0.66 0 1 C-8.58 1 -17.16 1 -26 1 C-26 36.64 -26 72.28 -26 109 C-51.08 109 -76.16 109 -102 109 C-102 101.74 -102 94.48 -102 87 C-97 89 -97 89 -94.88671875 89.8515625 C-85.19344418 93.26056492 -74.22607165 93.65315097 -64.5625 90 C-55.25962989 85.50024217 -49.34624563 79.28595452 -45 70 C-44.64035156 69.31421875 -44.28070313 68.6284375 -43.91015625 67.921875 C-40.28943865 60.27641123 -41.00585492 49.10261942 -43.5625 41.3125 C-47.69951493 31.27372951 -54.41558199 24.34271512 -64.33984375 19.96875 C-75.11435663 16.19679735 -85.78607258 17.10582645 -96 22 C-97.67989899 22.97760788 -99.35046506 23.97198626 -101 25 C-101.57619206 13.00666889 -101.57619206 13.00666889 -98 8 C-93.23117594 3.21781788 -89.13693221 0.77185355 -82.37475586 0.68115234 C-80.67403175 0.65134781 -80.67403175 0.65134781 -78.93894958 0.62094116 C-77.70999466 0.60938995 -76.48103973 0.59783875 -75.21484375 0.5859375 C-73.93057999 0.56657135 -72.64631622 0.5472052 -71.32313538 0.5272522 C-67.88944738 0.47584141 -64.45571706 0.43637922 -61.02185059 0.39910889 C-58.30371734 0.36766928 -55.58574087 0.32786879 -52.86772728 0.28753281 C-35.24486206 0.02648956 -17.62466093 -0.05319438 0 0 Z " fill="#D898FA" transform="translate(258,86)"/>
<path d="M0 0 C1.41712568 -0.00935994 1.41712568 -0.00935994 2.86288017 -0.01890898 C6.03057987 -0.03487189 9.19751362 -0.02222158 12.36521912 -0.00964355 C14.63530425 -0.01506315 16.90538588 -0.02218489 19.17546082 -0.03088379 C25.34267951 -0.04913815 31.50963093 -0.042041 37.67685437 -0.02936745 C44.12522438 -0.01925205 50.57357125 -0.02862895 57.02194214 -0.03491211 C68.54434472 -0.04265875 80.06661042 -0.0302166 91.58899157 -0.00987476 C102.0377358 0.00800044 112.4863023 0.00488847 122.93504333 -0.0135498 C135.06885981 -0.0349516 147.20253678 -0.04292659 159.33637565 -0.03110075 C165.7595067 -0.02485719 172.18251528 -0.02405406 178.6056385 -0.0372467 C184.64264777 -0.04877992 190.67932052 -0.04082545 196.71629333 -0.01766968 C198.93510313 -0.01236933 201.15394112 -0.01391888 203.37273979 -0.02272034 C206.39520042 -0.03360667 209.41657401 -0.01999554 212.43896484 0 C213.32271194 -0.00892289 214.20645903 -0.01784577 215.11698633 -0.02703905 C221.0151065 0.04895823 221.0151065 0.04895823 224.19299221 2.32483673 C226.39620683 5.61249111 226.33352683 7.64597807 225.6559906 11.50793457 C222.40677918 14.88929296 220.77460643 16.29892832 216.13798904 17.16525078 C214.19665903 17.18754848 214.19665903 17.18754848 212.21611023 17.21029663 C211.49990556 17.22510047 210.7837009 17.23990431 210.04579306 17.25515676 C207.69190684 17.29773196 205.33933137 17.30527537 202.98509216 17.31213379 C201.31950823 17.33448819 199.65394986 17.35882751 197.98842239 17.38505363 C193.70245397 17.44585499 189.41690037 17.47621561 185.13056374 17.49556255 C182.79131969 17.50725797 180.45224302 17.52531412 178.11306763 17.5464859 C168.6424894 17.63140404 159.17270643 17.6504733 149.70179272 17.64226007 C145.70021705 17.63964074 141.69864308 17.64209933 137.69706726 17.64364624 C130.99489417 17.64544027 124.29273228 17.64313509 117.59056091 17.63830566 C109.94635935 17.63285952 102.30218447 17.63463967 94.65798354 17.64013207 C87.97567071 17.64473291 81.29336571 17.64528061 74.6110518 17.6426934 C70.67188219 17.64116937 66.73272493 17.64082563 62.79355621 17.64422989 C46.70463957 17.65618841 30.63037757 17.53287351 14.54759216 17.06213379 C13.50819654 17.03301576 13.50819654 17.03301576 12.44780302 17.00330949 C-8.07632485 16.41342353 -8.07632485 16.41342353 -12.4065094 13.32043457 C-14.3440094 10.50793457 -14.3440094 10.50793457 -14.9690094 7.44543457 C-14.3440094 4.50793457 -14.3440094 4.50793457 -12.38894749 2.35608673 C-8.18358006 -0.1963983 -4.83140001 -0.04890441 0 0 Z " fill="#F1DCFD" transform="translate(150.34400939941406,407.4920654296875)"/>
<path d="M0 0 C26.01902387 -0.1050588 52.00244527 -0.19792654 78 1 C77.98428955 1.99854004 77.9685791 2.99708008 77.95239258 4.02587891 C77.89787381 7.74942887 77.86357066 11.4729439 77.83520508 15.19677734 C77.82016824 16.80491072 77.79973328 18.41300344 77.77368164 20.02099609 C77.73707178 22.33962064 77.72022278 24.65770049 77.70703125 26.9765625 C77.69154739 27.68930328 77.67606354 28.40204407 77.66011047 29.13638306 C77.65854189 33.84541684 78.51948858 37.00323022 81 41 C83.54730973 43.29257876 86.14918162 45.09945441 89 47 C80.43691838 46.89198928 71.87391693 46.77925813 63.31097603 46.66066074 C59.33397069 46.60572383 55.35695772 46.55235409 51.37988281 46.50268555 C47.53485262 46.45460641 43.68990128 46.40225436 39.84496689 46.34705925 C38.38514063 46.32683098 36.92529292 46.30808849 35.4654274 46.29092598 C10.55499038 45.99486418 10.55499038 45.99486418 4 40 C-2.00533555 32.03943892 -0.04979256 18.55909738 -0.01953125 8.9453125 C-0.01812134 8.07914307 -0.01671143 7.21297363 -0.01525879 6.32055664 C-0.01162377 4.21370142 -0.0060211 2.10684975 0 0 Z " fill="#E4B9FC" transform="translate(79,316)"/>
<path d="M0 0 C3.63061667 1.53218685 5.9863773 3.7183144 8.75 6.5 C9.94882812 7.69109375 9.94882812 7.69109375 11.171875 8.90625 C13 11 13 11 13 13 C13.87097069 13.36455795 13.87097069 13.36455795 14.75953674 13.73648071 C17.41083611 15.23169286 18.87434966 16.89831887 20.84741211 19.21630859 C27.06964845 26.29903243 33.76394696 32.88845624 40.44140625 39.5390625 C41.81881831 40.91460529 43.19600666 42.29037214 44.57298279 43.66635132 C48.16604381 47.2556272 51.76209949 50.84188763 55.35882568 54.42749023 C59.04119035 58.09955386 62.72066174 61.77451418 66.40039062 65.44921875 C73.5974602 72.63562177 80.79770246 79.81883678 88 87 C87.01 87.495 87.01 87.495 86 88 C84.16223999 87.29774292 84.16223999 87.29774292 82.28735352 86.58129883 C76.37652511 84.51290972 70.64904283 84.62020753 64.44041252 84.68100548 C62.35787693 84.69961613 60.27633204 84.69664346 58.19374084 84.6879425 C52.27995957 84.66629581 46.36657397 84.67705667 40.45288086 84.71508789 C36.81765476 84.73697208 33.18341116 84.7295732 29.54821968 84.7046299 C28.17322664 84.70105863 26.79815436 84.70857853 25.42329216 84.72788048 C12.03920036 84.91226419 12.03920036 84.91226419 6.47007751 79.78767395 C0.79137922 72.88214624 1.54498584 64.48158356 1.5234375 55.9375 C1.50909601 54.57802818 1.49333345 53.21857069 1.47622681 51.85913086 C1.43459569 48.2981654 1.40946167 44.73728874 1.38873291 41.17614746 C1.35277523 35.47821432 1.29144383 29.78050154 1.23024368 24.08279419 C1.21135882 22.10658901 1.19999964 20.13031648 1.18881226 18.15405273 C1.13694608 12.0139939 0.94680228 6.07017067 0 0 Z " fill="#FEFDFE" transform="translate(284,104)"/>
<path d="M0 0 C7.89381444 -0.02330024 15.7876142 -0.04100438 23.68145466 -0.05181217 C27.34795164 -0.05700266 31.01442488 -0.06402956 34.6809082 -0.07543945 C38.22762977 -0.08640599 41.77432867 -0.09230561 45.3210659 -0.09487724 C47.31433739 -0.09758965 49.30759993 -0.10537919 51.30085754 -0.11329651 C58.59302432 -0.11374053 65.7528321 0.17510437 73 1 C73.96636254 26.67286001 74.11962899 52.31105447 74 78 C72.40521494 75.89134284 70.85493517 73.78432531 69.37890625 71.58984375 C65.80117986 66.36559381 62.23426713 62.10208032 57.48535156 57.89111328 C51.00357152 52.06607509 44.82613297 45.97222256 38.671875 39.8046875 C37.54573848 38.67922683 36.41945374 37.55391445 35.29302979 36.42874146 C32.96212286 34.09929161 30.63299121 31.76808592 28.30517578 29.43554688 C25.31591547 26.44051678 22.32208783 23.45009817 19.32697678 20.46092033 C17.01416929 18.15171064 14.70372897 15.84014445 12.39402008 13.52783585 C11.28949677 12.42264485 10.18422846 11.31819789 9.07820892 10.21450424 C7.54678542 8.68560217 6.01857224 7.15356415 4.49121094 5.62060547 C3.62139587 4.74999481 2.75158081 3.87938416 1.85540771 2.98239136 C0 1 0 1 0 0 Z " fill="#E7BCFD" transform="translate(313,132)"/>
<path d="M0 0 C1.29873047 0.00322266 2.59746094 0.00644531 3.93554688 0.00976562 C5.30729233 0.01812094 6.67903712 0.02658588 8.05078125 0.03515625 C9.4342432 0.0401729 10.81770688 0.04473552 12.20117188 0.04882812 C15.5885852 0.06063096 18.97591158 0.07709606 22.36328125 0.09765625 C21.37328125 0.75765625 20.38328125 1.41765625 19.36328125 2.09765625 C15.28670579 5.1758867 12.88115769 7.20751657 11.36328125 12.09765625 C11.24980934 13.88681801 11.18862302 15.67994579 11.17578125 17.47265625 C10.86075504 21.75701267 10.28211302 23.793369 7.11328125 26.72265625 C6.48421875 27.26277344 5.85515625 27.80289063 5.20703125 28.359375 C1.99145594 31.3910085 0.24726989 35.15025147 -1.63671875 39.09765625 C-2.11818359 40.01804687 -2.11818359 40.01804687 -2.609375 40.95703125 C-6.08033867 48.51243124 -5.83199536 58.11630136 -3.44921875 65.97265625 C-1.58439658 70.66956817 0.78027227 76.09785283 4.85546875 79.25292969 C7.66910199 81.53609661 9.17841911 83.09195031 9.84790039 86.73413086 C9.95345038 89.83933537 9.8862343 92.86826074 9.73828125 95.97265625 C9.61453125 99.64390625 9.49078125 103.31515625 9.36328125 107.09765625 C-0.86671875 107.09765625 -11.09671875 107.09765625 -21.63671875 107.09765625 C-21.83963293 86.60332398 -21.56457332 66.1378736 -20.99993896 45.6519165 C-20.92253572 42.82518828 -20.85419331 39.99846137 -20.79351807 37.17132568 C-20.70625533 33.14204718 -20.58700256 29.11431032 -20.46484375 25.0859375 C-20.44173126 23.86527084 -20.41861877 22.64460419 -20.39480591 21.38694763 C-20.12978982 13.8136342 -19.35527788 9.92531736 -14.0390625 4.453125 C-9.17057886 0.57132071 -6.1357033 -0.02679346 0 0 Z " fill="#CD7AF8" transform="translate(146.63671875,87.90234375)"/>
<path d="M0 0 C5.92024943 3.24094526 8.88175166 7.66507105 12.1875 13.375 C13.81197301 20.19778664 13.47658809 26.1525835 9.93359375 32.2578125 C9.56363281 32.83273438 9.19367188 33.40765625 8.8125 34 C8.255625 34.886875 7.69875 35.77375 7.125 36.6875 C1.90800751 41.90449249 -3.2066282 44.32008064 -10.625 44.6875 C-17.34055349 44.3968854 -22.15199799 42.45412189 -27.1875 38 C-31.78493774 32.36203363 -33.62259114 27.01110367 -33.52734375 19.76171875 C-32.7370769 13.33966513 -29.55567418 7.89881048 -24.8125 3.5625 C-16.89750756 -2.4590352 -9.12199203 -4.05421868 0 0 Z " fill="#9277F0" transform="translate(189.1875,120)"/>
<path d="M0 0 C0.80224503 -0.00700928 1.60449005 -0.01401855 2.43104553 -0.02124023 C5.07482835 -0.03880155 7.717535 -0.02720455 10.36132812 -0.01367188 C12.20308639 -0.01636734 14.04484328 -0.02025021 15.88659668 -0.02526855 C19.7433835 -0.03116106 23.59979933 -0.02260868 27.45654297 -0.00390625 C32.39646688 0.01888322 37.33552149 0.00575881 42.27541351 -0.01819611 C46.07760144 -0.03266081 49.87958378 -0.02804503 53.68177795 -0.01768494 C55.5030172 -0.01501951 57.32427521 -0.01828096 59.14549255 -0.02760315 C61.69254892 -0.03777995 64.23820406 -0.02225292 66.78515625 0 C67.91057579 -0.01214539 67.91057579 -0.01214539 69.05873108 -0.02453613 C73.93551518 0.0542675 76.48628987 1.01442859 79.89257812 4.51757812 C80.55664062 6.51757812 80.55664062 6.51757812 80.51757812 8.51757812 C80.53691406 9.50757813 80.53691406 9.50757813 80.55664062 10.51757812 C79.4997215 13.70076985 77.6823562 14.72307471 74.89257812 16.51757812 C72.0577837 16.90478817 69.61489091 17.06569439 66.78515625 17.03515625 C65.58178871 17.04567017 65.58178871 17.04567017 64.35411072 17.05639648 C61.7103279 17.0739578 59.06762125 17.0623608 56.42382812 17.04882812 C54.58206986 17.05152359 52.74031297 17.05540646 50.89855957 17.0604248 C47.04177275 17.06631731 43.18535692 17.05776493 39.32861328 17.0390625 C34.38868937 17.01627303 29.44963476 17.02939744 24.50974274 17.05335236 C20.70755481 17.06781706 16.90557247 17.06320128 13.1033783 17.05284119 C11.28213905 17.05017576 9.46088104 17.05343721 7.6396637 17.0627594 C5.09260733 17.0729362 2.54695219 17.05740917 0 17.03515625 C-1.12541954 17.04730164 -1.12541954 17.04730164 -2.27357483 17.05969238 C-7.15035893 16.98088875 -9.70113362 16.02072766 -13.10742188 12.51757812 C-13.77148438 10.51757812 -13.77148438 10.51757812 -13.73242188 8.51757812 C-13.7453125 7.85757813 -13.75820313 7.19757813 -13.77148438 6.51757812 C-11.68302864 0.22764084 -5.70367779 -0.06155337 0 0 Z " fill="#D3B8FA" transform="translate(276.107421875,224.482421875)"/>
<path d="M0 0 C0.82160614 -0.00861557 1.64321228 -0.01723114 2.48971558 -0.02610779 C5.20383265 -0.04879808 7.9169197 -0.04202321 10.63110352 -0.03295898 C12.51913256 -0.03819349 14.40715898 -0.04446933 16.29518127 -0.05174255 C20.25208847 -0.0621526 24.20863619 -0.05757703 28.16552734 -0.04296875 C33.23451514 -0.02578609 38.3023689 -0.04926645 43.37123013 -0.08445835 C47.27036541 -0.10642793 51.16922921 -0.10499185 55.06840706 -0.09669304 C56.93710638 -0.09587316 58.80582556 -0.1027436 60.67446709 -0.11746407 C63.28889338 -0.13490081 65.90128046 -0.12037592 68.515625 -0.09765625 C69.28617722 -0.10934845 70.05672943 -0.12104065 70.85063171 -0.13308716 C74.81464711 -0.06305953 76.65643774 0.40606086 79.83778381 2.84632874 C81.82250977 5.53344727 81.82250977 5.53344727 81.88500977 9.15844727 C80.68394831 12.97358366 80.26536054 13.68324792 76.82250977 15.53344727 C74.01693811 15.82892546 71.43408686 15.95381063 68.62915039 15.9375 C67.39433174 15.94779488 67.39433174 15.94779488 66.13456726 15.95829773 C63.4157889 15.97658629 60.69758638 15.97272575 57.97875977 15.96704102 C56.0883363 15.97160148 54.1979145 15.97690665 52.30749512 15.98292542 C48.34644839 15.99186029 44.38560324 15.98942869 40.42456055 15.97949219 C35.34666439 15.96799568 30.26946291 15.98822248 25.19165802 16.01740932 C21.28830542 16.03574722 17.38512009 16.0354838 13.48173523 16.0297718 C11.60942103 16.02961833 9.73709567 16.03568437 7.86482239 16.04806328 C5.24805985 16.06292801 2.63259096 16.05233056 0.01586914 16.03515625 C-1.1453521 16.0496582 -1.1453521 16.0496582 -2.33003235 16.06445312 C-5.80951591 16.0165909 -7.8135504 15.79935767 -10.6583252 13.72084045 C-12.8866451 10.51235971 -12.72180549 8.34365404 -12.17749023 4.53344727 C-8.93832471 -0.12324537 -5.26453125 -0.04446899 0 0 Z " fill="#C6AAF8" transform="translate(275.177490234375,255.466552734375)"/>
<path d="M0 0 C18.38181845 -0.12935133 36.74720271 0.02845615 55.125 0.4375 C56.07114166 0.45714813 57.01728333 0.47679626 57.99209595 0.49703979 C60.70580544 0.55436442 63.41929382 0.61791119 66.1328125 0.68359375 C67.34503227 0.70867004 67.34503227 0.70867004 68.58174133 0.73425293 C79.8978329 1.03184903 79.8978329 1.03184903 82.86328125 3.63671875 C85.75781569 7.73275805 87.74121732 10.82434637 88 16 C91.96 16 95.92 16 100 16 C100 16.33 100 16.66 100 17 C98.71456299 16.9985498 97.42912598 16.99709961 96.10473633 16.99560547 C94.24300133 16.99442081 92.3812663 16.99328625 90.51953125 16.9921875 C89.50027054 16.9910495 88.48100983 16.9899115 87.43086243 16.98873901 C81.40572335 16.98610737 75.3818142 17.00990273 69.35693359 17.06738281 C63.2338961 17.12421634 57.11214684 17.14413737 50.98887444 17.1269722 C47.46093906 17.11870241 43.93507661 17.12989705 40.4074707 17.18164062 C36.91758064 17.23201989 33.4307239 17.23305229 29.94065285 17.20095444 C28.00969139 17.19548383 26.07878788 17.23966045 24.14836121 17.28543091 C17.08373309 17.17070323 13.40754197 16.18572828 8.29223633 11.15185547 C5.19164364 7.63553758 2.34960067 4.05840116 0 0 Z " fill="#765CEC" transform="translate(298,116)"/>
<path d="M0 0 C0 6.6 0 13.2 0 20 C0.66 20.33 1.32 20.66 2 21 C1.51781006 21.98552856 1.51781006 21.98552856 1.02587891 22.9909668 C-0.24754459 26.72607973 -0.35313051 30.24225424 -0.4140625 34.14453125 C-0.43342865 34.91431808 -0.4527948 35.68410492 -0.4727478 36.47721863 C-0.53225623 38.92220171 -0.57881295 41.36723262 -0.625 43.8125 C-0.66320631 45.47593134 -0.70225957 47.13934347 -0.7421875 48.80273438 C-0.83793383 52.86833241 -0.92207009 56.93402301 -1 61 C-9.70240184 53.85117534 -15.10682011 46.19566164 -16.35546875 34.73828125 C-16.84847178 22.62639592 -12.92875827 13.06143802 -5 4 C-1.3 0 -1.3 0 0 0 Z " fill="#F2DDFD" transform="translate(157,111)"/>
<path d="M0 0 C0.73714737 -0.00287018 1.47429474 -0.00574036 2.23377991 -0.00869751 C3.78956879 -0.01073476 5.34538348 -0.00522856 6.90112305 0.00732422 C9.27386221 0.02336117 11.64489227 0.00747734 14.01757812 -0.01171875 C15.53255582 -0.00973581 17.04753246 -0.00589108 18.5625 0 C19.26785385 -0.00607269 19.9732077 -0.01214539 20.69993591 -0.0184021 C25.06123418 0.04339215 27.93035327 0.62817169 31.34765625 3.3984375 C32.41015625 6.7734375 32.41015625 6.7734375 32.34765625 10.3984375 C30.86523438 13.08349609 30.86523438 13.08349609 28.34765625 15.3984375 C25.3726106 15.90668086 22.97690632 16.1012692 20.00390625 16.0625 C18.79474548 16.06967545 18.79474548 16.06967545 17.56115723 16.07699585 C15.85992477 16.08039239 14.15862683 16.0712069 12.45751953 16.05029297 C9.85561402 16.02351939 7.25802158 16.05004427 4.65625 16.08203125 C3.00129258 16.0787271 1.34633783 16.07232075 -0.30859375 16.0625 C-1.08473022 16.07262115 -1.8608667 16.08274231 -2.66052246 16.09317017 C-6.51444417 16.00968382 -8.29262313 15.72869223 -11.17382812 13.08349609 C-12.65234375 10.3984375 -12.65234375 10.3984375 -12.65234375 6.7734375 C-10.6675592 0.07478966 -6.32587015 -0.05430627 0 0 Z " fill="#6148E9" transform="translate(167.65234375,255.6015625)"/>
<path d="M0 0 C0.80610718 -0.00619858 1.61221436 -0.01239716 2.44274902 -0.01878357 C4.14394932 -0.02587499 5.84521912 -0.02271945 7.54638672 -0.01000977 C10.14810887 0.00386284 12.74623754 -0.03022623 15.34765625 -0.06835938 C17.00260505 -0.06931056 18.65755834 -0.06745176 20.3125 -0.0625 C21.08863647 -0.07575821 21.86477295 -0.08901642 22.66442871 -0.10267639 C26.54637563 -0.03580464 28.2904192 0.22523142 31.17382812 2.91430664 C32.65625 5.56640625 32.65625 5.56640625 32.71875 8.62890625 C31.36161828 12.38097629 30.01481258 13.43498915 26.65625 15.56640625 C23.9334784 15.96881804 21.62347463 16.15200469 18.90625 16.1328125 C17.80265137 16.14211037 17.80265137 16.14211037 16.67675781 16.15159607 C15.12696653 16.15867476 13.5770989 16.15555424 12.02734375 16.14282227 C9.66263407 16.12894372 7.3018765 16.16306056 4.9375 16.20117188 C3.42708237 16.2021231 1.91665981 16.20026409 0.40625 16.1953125 C-0.6470752 16.21519981 -0.6470752 16.21519981 -1.72167969 16.23548889 C-5.58398777 16.16260797 -7.23517192 15.65284627 -10.29296875 13.21850586 C-12.34375 10.56640625 -12.34375 10.56640625 -12.90625 7.50390625 C-11.52331934 0.28193501 -6.43031088 -0.04109265 0 0 Z " fill="#6147E9" transform="translate(167.34375,225.43359375)"/>
<path d="M0 0 C1.46953125 -0.04350586 1.46953125 -0.04350586 2.96875 -0.08789062 C10.07383758 -0.15098225 10.07383758 -0.15098225 13.3828125 2.1171875 C15.44928114 5.43534571 15.42072806 7.48935006 14.75 11.3125 C11.89183676 14.97518327 10.19016618 16.13371093 5.53857422 16.71118164 C1.64279343 16.80505896 -2.23177208 16.74894346 -6.125 16.625 C-7.49475108 16.59989222 -8.86454635 16.57708339 -10.234375 16.55664062 C-13.57404622 16.4978436 -16.91145431 16.41569834 -20.25 16.3125 C-19.59902344 15.55066406 -18.94804687 14.78882813 -18.27734375 14.00390625 C-16.01920152 11.45661299 -16.01920152 11.45661299 -15.8125 8.25 C-16.28785294 5.05834457 -17.08654273 3.65624538 -19.25 1.3125 C-12.81768511 0.37508918 -6.49713207 0.06514504 0 0 Z " fill="#F9F6FE" transform="translate(361.25,407.6875)"/>
</svg>
